<?xml version="1.0" encoding="UTF-8"?><svg id="Layer_2" xmlns="http://www.w3.org/2000/svg" xmlns:xlink="http://www.w3.org/1999/xlink" viewBox="0 0 295.75 115.68"><defs><style>.cls-1{clip-path:url(#clippath);}.cls-2{fill:none;}.cls-2,.cls-3,.cls-4{stroke-width:0px;}.cls-3{fill:#e81044;}.cls-4{fill:#04071c;}</style><clipPath id="clippath"><rect class="cls-2" width="295.75" height="115.68"/></clipPath></defs><g id="Layer_1-2"><g class="cls-1"><path class="cls-3" d="M42.75,29.31c.51,0,.96.45.96.96v12.93c1.73-2.24,4.8-3.58,8.26-3.58,7.68,0,12.22,4.35,12.22,11.77v23.36c0,.51-.45.96-.96.96h-11.26c-.51,0-.96-.45-.9-.96v-20.09c0-2.56-1.15-4.03-3.14-4.03-3.65,0-4.22,3.58-4.22,3.58v20.54c0,.51-.45.96-.96.96h-11.26c-.51,0-.96-.45-.96-.96V30.27c0-.51.45-.96.96-.96h11.26Z"/><path class="cls-3" d="M105.02,58.1c0,11.14-7.55,18.56-18.81,18.56s-18.81-7.42-18.81-18.49,7.55-18.56,18.81-18.56,18.81,7.42,18.81,18.49ZM79.87,58.17c0,4.16,2.56,6.98,6.34,6.98s6.34-2.82,6.34-7.04-2.56-6.98-6.34-6.98-6.34,2.82-6.34,7.04Z"/><path class="cls-3" d="M129.47,40.51c.58,0,.96.38.96.9l-.7,6.21c-.06.51-.45.96-.96.96h-4.1v26.17c0,.51-.45.96-.96.96h-11.26c-.51,0-.96-.45-.96-.96v-26.17h-3.65c-.45,0-.9-.38-.9-.9v-6.21c0-.58.45-.96.9-.96h3.65v-6.98c0-.45.45-.83.96-.9l11.26-1.09c.51-.06.96.45.96.9v8.06h4.8Z"/><path class="cls-4" d="M143.55,43.77c2.43-2.56,6.53-4.22,10.81-4.22,10.11,0,16.9,7.42,16.9,18.56s-6.78,18.49-16.9,18.49c-3.01,0-5.89-.9-7.81-2.43v12.54c0,.45-.45.9-.96.9h-11.26c-.51,0-.96-.45-.96-.9v-45.24c0-.51.45-.96.96-.96h7.23c.45,0,.77.38,1.02.96l.96,2.3ZM146.56,62.07c.77,2.11,2.82,3.52,5.06,3.52,3.52,0,5.89-2.94,5.89-7.42s-2.37-7.68-5.89-7.68c-2.24,0-4.29,1.41-5.06,3.52v8.06Z"/><path class="cls-4" d="M177.09,44.47c-.19-.45-.06-.9.32-1.22,3.65-2.3,8.77-3.65,13.89-3.65,11.07,0,16.19,5.82,16.19,18.56v16.57c0,.51-.45.96-.96.96h-8.06c-.51,0-1.02-.45-1.02-.96l-.45-1.73c-2.11,2.24-6.34,3.65-11.01,3.65-7.36,0-12.22-4.74-12.16-11.78.06-6.27,4.93-10.43,12.16-10.43,3.71,0,7.04,1.34,8.32,3.39v-2.69c0-2.75-1.98-4.54-4.93-4.54-2.5,0-5.57.83-7.68,2.05-.32.19-.7-.06-.96-.51l-3.65-7.68ZM194.3,64.18c-1.09-1.09-2.18-1.6-3.52-1.6-1.6,0-2.69.9-2.69,2.3s1.09,2.3,2.69,2.3c1.34,0,2.43-.51,3.52-1.6v-1.41Z"/><path class="cls-4" d="M214.65,64.57c.13-.38.51-.45.83-.26,2.5,1.47,5.18,2.62,7.36,2.62,1.34.13,2.24-.64,2.24-1.6,0-3.26-14.01-2.24-14.01-14.27,0-6.85,5.82-11.46,14.53-11.46,4.16,0,9.15,1.47,12.54,3.65.32.26.51.58.38.9l-3.26,7.55c-.13.38-.51.45-.83.26-2.5-1.6-5.18-2.62-7.36-2.62-1.34-.13-2.24.51-2.24,1.54,0,3.39,14.01,2.18,14.01,14.33,0,6.85-5.63,11.46-14.14,11.46-4.16,0-9.34-1.47-12.93-3.65-.32-.32-.51-.64-.38-1.02l3.26-7.42Z"/><path class="cls-4" d="M244.99,64.57c.13-.38.51-.45.83-.26,2.5,1.47,5.18,2.62,7.36,2.62,1.34.13,2.24-.64,2.24-1.6,0-3.26-14.01-2.24-14.01-14.27,0-6.85,5.82-11.46,14.53-11.46,4.16,0,9.15,1.47,12.54,3.65.32.26.51.58.38.9l-3.26,7.55c-.13.38-.51.45-.83.26-2.5-1.6-5.18-2.62-7.36-2.62-1.34-.13-2.24.51-2.24,1.54,0,3.39,14.01,2.18,14.01,14.33,0,6.85-5.63,11.46-14.14,11.46-4.16,0-9.34-1.47-12.93-3.65-.32-.32-.51-.64-.38-1.02l3.26-7.42Z"/></g></g></svg>