<?xml version="1.0" encoding="utf-8"?>
<!-- Generator: Adobe Illustrator 28.3.0, SVG Export Plug-In . SVG Version: 6.00 Build 0)  -->
<svg version="1.1" id="Layer_1" xmlns="http://www.w3.org/2000/svg" xmlns:xlink="http://www.w3.org/1999/xlink" x="0px" y="0px"
	 viewBox="0 0 232.3 115.7" style="enable-background:new 0 0 232.3 115.7;" xml:space="preserve">
<style type="text/css">
	.st0{enable-background:new    ;}
	.st1{fill:#04071C;}
	.st2{fill:#E81044;}
</style>
<g class="st0">
	<path class="st1" d="M42.9,40.4c0.5,0,1,0.4,1,1v30.3c0,7.9-4,14.3-10.9,17.4c-0.5,0.3-0.9,0.2-1.2-0.3l-5.2-8.1
		c-0.3-0.4-0.1-1,0.4-1.5c2.3-2.2,3.7-4.9,3.7-7.3V41.4c0-0.5,0.4-1,1-1H42.9z M44.2,33c0,3.8-2.8,6.3-7,6.3s-7-2.6-7-6.3
		c0-4,2.8-6.6,7-6.6S44.2,29.1,44.2,33z"/>
	<path class="st1" d="M80.8,40.5c0.5,0,1,0.4,1,1v33.3c0,0.4-0.4,0.9-1,0.9h-7.2c-0.5,0-0.8-0.4-1-1l-1-2.3
		c-2.3,2.6-6.1,4.2-10.2,4.2c-8.3,0-13.2-5.3-13.2-14V41.5c0-0.5,0.4-1,1-1h11.3c0.5,0,1,0.4,1,1V61c0,2.2,1.3,3.6,3.4,3.6
		c2.5,0,3.9-2,3.9-2V41.5c0-0.5,0.4-1,1-1H80.8z"/>
	<path class="st1" d="M88.9,64.6c0.1-0.4,0.5-0.4,0.8-0.3c2.5,1.5,5.2,2.6,7.4,2.6c1.3,0.1,2.2-0.6,2.2-1.6c0-3.3-14-2.2-14-14.3
		c0-6.8,5.8-11.5,14.5-11.5c4.2,0,9.2,1.5,12.5,3.6c0.3,0.3,0.5,0.6,0.4,0.9l-3.3,7.6c-0.1,0.4-0.5,0.4-0.8,0.3
		c-2.5-1.6-5.2-2.6-7.4-2.6c-1.3-0.1-2.2,0.5-2.2,1.5c0,3.4,14,2.2,14,14.3c0,6.8-5.6,11.5-14.1,11.5c-4.2,0-9.3-1.5-12.9-3.6
		c-0.3-0.3-0.5-0.6-0.4-1L88.9,64.6z"/>
	<path class="st1" d="M137.5,40.5c0.6,0,1,0.4,1,0.9l-0.7,6.2c-0.1,0.5-0.4,1-1,1h-4.1v26.2c0,0.5-0.4,1-1,1h-11.3c-0.5,0-1-0.4-1-1
		V48.6h-3.6c-0.4,0-0.9-0.4-0.9-0.9v-6.2c0-0.6,0.4-1,0.9-1h3.6v-7c0-0.4,0.4-0.8,1-0.9l11.3-1.1c0.5-0.1,1,0.4,1,0.9v8.1H137.5z"/>
</g>
<g class="st0">
	<path class="st2" d="M173.7,40.5c0.5,0,1,0.4,1,1v33.3c0,0.4-0.4,0.9-1,0.9h-7.2c-0.5,0-0.8-0.4-1-1l-1-2.3
		c-2.3,2.6-6.1,4.2-10.2,4.2c-8.3,0-13.2-5.3-13.2-14V41.5c0-0.5,0.4-1,1-1h11.3c0.5,0,1,0.4,1,1V61c0,2.2,1.3,3.6,3.4,3.6
		c2.5,0,3.9-2,3.9-2V41.5c0-0.5,0.4-1,1-1H173.7z"/>
	<path class="st2" d="M181.9,64.6c0.1-0.4,0.5-0.4,0.8-0.3c2.5,1.5,5.2,2.6,7.4,2.6c1.3,0.1,2.2-0.6,2.2-1.6c0-3.3-14-2.2-14-14.3
		c0-6.8,5.8-11.5,14.5-11.5c4.2,0,9.2,1.5,12.5,3.6c0.3,0.3,0.5,0.6,0.4,0.9l-3.3,7.6c-0.1,0.4-0.5,0.4-0.8,0.3
		c-2.5-1.6-5.2-2.6-7.4-2.6c-1.3-0.1-2.2,0.5-2.2,1.5c0,3.4,14,2.2,14,14.3c0,6.8-5.6,11.5-14.1,11.5c-4.2,0-9.3-1.5-12.9-3.6
		c-0.3-0.3-0.5-0.6-0.4-1L181.9,64.6z"/>
</g>
</svg>
