<svg xmlns="http://www.w3.org/2000/svg" viewBox="0 0 500 500"><g id="freepik--background-complete--inject-2"><path d="M108.29,238.49a44.83,44.83,0,1,1-9.22-62.73l.09.07A44.78,44.78,0,0,1,108.29,238.49Z" style="fill:#ebebeb"></path><path d="M99.75,232.1a34.16,34.16,0,1,1-7.06-47.79l.06,0a34.12,34.12,0,0,1,7,47.74Z" style="fill:#f5f5f5"></path><path d="M100.38,231.24c-.17-.12.61-1.4,1.74-3.83a36,36,0,0,0,3.11-10.74,33.87,33.87,0,0,0-1.91-16.23A34.7,34.7,0,0,0,98.65,192a32.45,32.45,0,0,0-3.4-3.82,33.21,33.21,0,0,0-8.61-6,33.59,33.59,0,0,0-9.58-3,32.67,32.67,0,0,0-4.73-.38,34.59,34.59,0,0,0-8.72,1,35.38,35.38,0,0,0-7.18,2.72,36,36,0,0,0-9,6.61c-1.89,1.89-2.83,3.07-3,3s.53-1.47,2.24-3.63A31.45,31.45,0,0,1,55.56,181a34.62,34.62,0,0,1,27.08-3.1,35,35,0,0,1,5.15,2,37,37,0,0,1,4.91,2.87,38,38,0,0,1,4.38,3.63,35.09,35.09,0,0,1,3.64,4.16A34.67,34.67,0,0,1,107.08,217a31.54,31.54,0,0,1-4,10.95C101.58,230.24,100.51,231.33,100.38,231.24Z" style="fill:#e0e0e0"></path><path d="M63.28,230.29l-3.49,4.81-4.3-3.1,3.4-4.68c-4.07-3.35-7.19-7.64-8.21-11.21l6.17-3.53a21.39,21.39,0,0,0,6.13,9.1l5.21-7.18c-3.94-4.62-8.12-10.08-3.66-16.23,3.31-4.56,9.46-6.07,16.82-1.92l3.46-4.77,4.3,3.12-3.4,4.68a24.08,24.08,0,0,1,6.83,9l-6,3.73a21.69,21.69,0,0,0-5-7l-5.3,7.31c4,4.58,8.06,10,3.66,16C76.71,232.87,70.63,234.37,63.28,230.29Zm9.49-22.13,4.43-6.11c-2.65-1.14-4.46-.54-5.49.88s-.4,3.25,1.06,5.23Zm-.12,15.73c1.09-1.51.44-3.23-.94-5.22l-4.31,5.94c2.5,1.09,4.25.65,5.25-.72Z" style="fill:#e0e0e0"></path><path d="M377.48,365.82a38.9,38.9,0,1,1-8-54.43l.08.06A38.86,38.86,0,0,1,377.48,365.82Z" style="fill:#ebebeb"></path><path d="M370.07,360.28A29.64,29.64,0,1,1,364,318.8l.05,0A29.61,29.61,0,0,1,370.07,360.28Z" style="fill:#f5f5f5"></path><path d="M370.62,359.53c-.15-.11.53-1.22,1.5-3.33a31.27,31.27,0,0,0,2.7-9.32,30.26,30.26,0,0,0,.08-6.66,29.58,29.58,0,0,0-1.74-7.42,26.91,26.91,0,0,0-1.72-3.74,27.32,27.32,0,0,0-2.33-3.6,29,29,0,0,0-2.95-3.32,33.88,33.88,0,0,0-3.53-2.91,31.78,31.78,0,0,0-3.94-2.32,28.89,28.89,0,0,0-8.31-2.59,28.24,28.24,0,0,0-4.11-.33,29.21,29.21,0,0,0-13.79,3.27,31.5,31.5,0,0,0-7.83,5.73c-1.64,1.64-2.46,2.66-2.6,2.55s.46-1.27,1.94-3.14a27.3,27.3,0,0,1,7.72-6.55,29.58,29.58,0,0,1,6.5-2.77,30.1,30.1,0,0,1,8.06-1.18,28.24,28.24,0,0,1,4.41.28,29.19,29.19,0,0,1,4.52,1,30.42,30.42,0,0,1,12.53,7.37,31.9,31.9,0,0,1,3.16,3.61,28.85,28.85,0,0,1,2.46,3.91,29.17,29.17,0,0,1,1.78,4,30.38,30.38,0,0,1,1.65,8,29.81,29.81,0,0,1-.37,7.06,27.38,27.38,0,0,1-3.51,9.5C371.65,358.66,370.72,359.6,370.62,359.53Z" style="fill:#e0e0e0"></path><path d="M338.43,358.7l-3,4.18-3.74-2.71,2.95-4.07c-3.53-2.9-6.23-6.63-7.12-9.72l5.35-3.06a18.63,18.63,0,0,0,5.32,7.9l4.52-6.24c-3.41-4-7-8.74-3.17-14.08,2.87-4,8.21-5.27,14.59-1.66l3-4.15,3.73,2.71-2.95,4.07a20.76,20.76,0,0,1,5.93,7.77l-5.2,3.23a18.7,18.7,0,0,0-4.3-6.08l-4.6,6.35c3.44,4,7,8.65,3.18,13.91C350.07,360.94,344.8,362.24,338.43,358.7Zm8.23-19.2,3.84-5.3c-2.3-1-3.87-.47-4.77.76S345.39,337.79,346.66,339.5Zm-.11,13.65c.95-1.31.38-2.8-.82-4.53L342,353.77c2.16,1,3.69.57,4.55-.62Z" style="fill:#e0e0e0"></path><path d="M142.3,98.54a25.55,25.55,0,1,1-20.53-29.73h.06A25.52,25.52,0,0,1,142.3,98.54Z" style="fill:#ebebeb"></path><path d="M136.32,97.43a19.47,19.47,0,1,1-15.64-22.66h0a19.44,19.44,0,0,1,15.59,22.64Z" style="fill:#f5f5f5"></path><path d="M136.43,96.83a10.7,10.7,0,0,1-.08-2.4,20.58,20.58,0,0,0-1.12-6.27,19.77,19.77,0,0,0-1.89-4,19.35,19.35,0,0,0-3.18-3.86,18.85,18.85,0,0,0-4.52-3.15,19.84,19.84,0,0,0-2.7-1.1,21,21,0,0,0-2.92-.69,21.52,21.52,0,0,0-3-.22,20.28,20.28,0,0,0-2.91.24,18.49,18.49,0,0,0-2.74.65,17.5,17.5,0,0,0-2.51,1,19.24,19.24,0,0,0-7.18,6,20.59,20.59,0,0,0-3,5.65,11.22,11.22,0,0,1-.79,2.26,5.67,5.67,0,0,1,.23-2.42,18.15,18.15,0,0,1,2.65-6.1,19.29,19.29,0,0,1,7.42-6.55,19.09,19.09,0,0,1,2.69-1.12,19.77,19.77,0,0,1,2.94-.74A22.07,22.07,0,0,1,117,73.7a21.83,21.83,0,0,1,3.23.23,21.22,21.22,0,0,1,3.15.75,20.53,20.53,0,0,1,2.91,1.21,18.53,18.53,0,0,1,2.59,1.59,18,18,0,0,1,2.22,1.87,20,20,0,0,1,3.29,4.21,20.7,20.7,0,0,1,1.84,4.27,18,18,0,0,1,.69,6.61A6.12,6.12,0,0,1,136.43,96.83Z" style="fill:#e0e0e0"></path><path d="M117.22,105.69l-.57,3.35-3-.51.55-3.26a14.35,14.35,0,0,1-7-3.65l2.26-3.36a12.13,12.13,0,0,0,5.43,3.1l.85-5c-3.17-1.37-6.68-3.11-5.95-7.38.54-3.16,3.3-5.48,8.11-5.21l.56-3.32,3,.51-.56,3.26a13.77,13.77,0,0,1,5.75,2.85l-2.12,3.42a12.52,12.52,0,0,0-4.3-2.34l-.87,5.08c3.18,1.34,6.63,3.07,5.91,7.27C124.73,103.63,122,105.93,117.22,105.69ZM116.49,92l.73-4.24c-1.65.09-2.42.85-2.59,1.84S115.25,91.35,116.49,92Zm3.91,8.07c.18-1-.59-1.76-1.8-2.42l-.7,4.11c1.55-.08,2.34-.76,2.5-1.7Z" style="fill:#e0e0e0"></path></g><g id="freepik--Floor--inject-2"><path d="M472.62,442.88c0,.15-92.49.27-206.55.27S59.51,443,59.51,442.88s92.46-.26,206.56-.26S472.62,442.74,472.62,442.88Z" style="fill:#263238"></path></g><g id="freepik--Device--inject-2"><path d="M181.61,128.06s.87-44.81-36.2-67.57H262.9s33.59,27.22,33.87,67.57Z" style="fill:#ebebeb"></path><path d="M253.94,76.83c0,.15-13.42.27-30,.27s-30-.12-30-.27,13.42-.26,30-.26S253.94,76.69,253.94,76.83Z" style="fill:#455a64"></path><path d="M266.76,84.94c0,.14-17.78.26-39.71.26s-39.71-.12-39.71-.26,17.78-.27,39.71-.27S266.76,84.79,266.76,84.94Z" style="fill:#263238"></path><path d="M273.44,105.44c0,.14-17.78.26-39.71.26s-39.72-.12-39.72-.26,17.78-.26,39.72-.26S273.44,105.3,273.44,105.44Z" style="fill:#263238"></path><path d="M231.94,94.27a9.8,9.8,0,0,1-1.62.11l-4.44.08c-3.75.05-8.92.08-14.64.08s-10.89,0-14.64-.08l-4.44-.08a9.8,9.8,0,0,1-1.62-.11,9.79,9.79,0,0,1,1.62-.1l4.44-.08c3.75,0,8.92-.08,14.64-.08s10.89,0,14.64.08l4.44.08A9.79,9.79,0,0,1,231.94,94.27Z" style="fill:#263238"></path><path d="M266.76,94.27a5.36,5.36,0,0,1-1.2.11l-3.28.08c-2.76.05-6.59.08-10.81.08s-8.05,0-10.81-.08l-3.28-.08a5.36,5.36,0,0,1-1.2-.11,6.08,6.08,0,0,1,1.2-.1l3.28-.08c2.76,0,6.59-.08,10.81-.08s8,0,10.81.08l3.28.08A5.41,5.41,0,0,1,266.76,94.27Z" style="fill:#263238"></path><path d="M239.31,116.43a9.85,9.85,0,0,1-1.63.11l-4.43.08c-3.75,0-8.93.08-14.64.08s-10.9,0-14.65-.08l-4.43-.08a9.85,9.85,0,0,1-1.63-.11,9.85,9.85,0,0,1,1.63-.1l4.43-.08c3.75,0,8.93-.08,14.65-.08s10.89,0,14.64.08l4.43.08A9.85,9.85,0,0,1,239.31,116.43Z" style="fill:#263238"></path><path d="M274.13,116.43a5.36,5.36,0,0,1-1.2.11l-3.28.08c-2.77,0-6.59.08-10.81.08s-8,0-10.82-.08l-3.28-.08a5.36,5.36,0,0,1-1.2-.11,6.08,6.08,0,0,1,1.2-.1l3.28-.08c2.77,0,6.59-.08,10.82-.08s8,0,10.81.08l3.28.08A6.08,6.08,0,0,1,274.13,116.43Z" style="fill:#263238"></path><path d="M157.59,126.79H330.93l9.44,300.3a15.34,15.34,0,0,1-14.86,15.82H144.78a9.92,9.92,0,0,1-9.91-9.43l-8.33-169.57S75.13,245.25,76,188.32C76,188.32,78.34,126.79,157.59,126.79Z" style="fill:#263238"></path><path d="M167,442.46l-7.56-315.67H337.22l3.21,302.39a13.28,13.28,0,0,1-12.85,13.69h-.46Z" style="fill:#455a64"></path><polygon points="174.13 145.08 177.73 292.06 322.52 292.06 320.57 145.08 174.13 145.08" style="fill:#263238"></polygon><path d="M190.15,164.1c7.07,1.91,16,1.1,23.26.75a2,2,0,0,0,0-4c-7.26-.36-16.2-1.17-23.26.75a1.33,1.33,0,0,0-.9,1.65,1.35,1.35,0,0,0,.9.9Z" style="fill:#e0e0e0"></path><path d="M225.77,163.81c6.94,1.77,15.91,1.45,23,.77a2,2,0,0,0,0-4c-7.09-.69-16.06-1-23,.77a1.29,1.29,0,0,0-.86,1.61,1.28,1.28,0,0,0,.86.86Z" style="fill:#e0e0e0"></path><path d="M260.91,163.18c3.49,1.06,7.26.88,10.88.94a70.81,70.81,0,0,0,11.09-.21c1.81-.26,1.81-3.41,0-3.66a69.59,69.59,0,0,0-11.09-.22c-3.62.06-7.39-.12-10.88.94a1.15,1.15,0,0,0,0,2.21Z" style="fill:#e0e0e0"></path><path d="M293.47,163.38a58.73,58.73,0,0,0,7.95.61c2.64.06,5.49.49,8.05-.24a1.75,1.75,0,0,0,0-3.35c-2.56-.73-5.41-.3-8.05-.24a57.17,57.17,0,0,0-7.95.62,1.36,1.36,0,0,0,0,2.6Z" style="fill:#e0e0e0"></path><rect x="177.78" y="309.54" width="41.96" height="29.99" style="fill:#007BFF"></rect><rect x="177.78" y="309.54" width="7.59" height="29.99" style="fill:#263238"></rect><rect x="229.16" y="309.54" width="41.96" height="29.99" style="fill:#007BFF"></rect><rect x="228.73" y="309.54" width="7.59" height="29.99" style="fill:#263238"></rect><rect x="280.55" y="309.54" width="41.96" height="29.99" style="fill:#007BFF"></rect><rect x="279.35" y="309.54" width="7.59" height="29.99" style="fill:#263238"></rect><rect x="280.55" y="349.44" width="41.96" height="29.99" style="fill:#007BFF"></rect><rect x="280.55" y="349.44" width="7.82" height="29.99" style="fill:#263238"></rect><rect x="177.78" y="349.44" width="41.96" height="29.99" style="fill:#007BFF"></rect><rect x="177.78" y="349.38" width="7.59" height="29.99" style="fill:#263238"></rect><rect x="177.78" y="388.94" width="41.96" height="29.99" style="fill:#007BFF"></rect><rect x="177.78" y="388.94" width="41.96" height="29.99" style="isolation:isolate;opacity:0.30000001192092896"></rect><rect x="177.78" y="388.94" width="7.59" height="29.99" style="fill:#263238"></rect><rect x="228.93" y="349.44" width="41.96" height="29.99" style="fill:#007BFF"></rect><rect x="228.93" y="349.38" width="7.59" height="29.99" style="fill:#263238"></rect><rect x="229.16" y="388.94" width="41.96" height="29.99" style="fill:#007BFF"></rect><rect x="229.16" y="388.94" width="41.96" height="29.99" style="isolation:isolate;opacity:0.30000001192092896"></rect><rect x="229.16" y="388.94" width="7.59" height="29.99" style="fill:#263238"></rect><rect x="280.55" y="388.94" width="41.96" height="29.99" style="fill:#e0e0e0"></rect><rect x="280.55" y="388.94" width="7.59" height="29.99" style="fill:#263238"></rect><path d="M153.15,442.92c-.72,0-3.35-70.74-5.88-158s-4-158.09-3.28-158.11,3.35,70.72,5.88,158S153.87,442.9,153.15,442.92Z" style="fill:#455a64"></path><polygon points="322.3 275.32 322.3 280.71 338.9 284.84 338.81 276.53 322.3 275.32" style="fill:#455a64"></polygon><path d="M120.79,264.51a6.81,6.81,0,0,0-2.86-.47,10.07,10.07,0,0,0-2.86.7l-11.36,3.8L81.51,276l-42,14a7,7,0,0,0-4,3,6.73,6.73,0,0,0-.95,4.81,18.35,18.35,0,0,0,.72,2.43l.81,2.42c.54,1.61,1.07,3.2,1.61,4.79q3.16,9.49,6.16,18.43c4,11.9,7.68,23,11.07,33.09,6.74,20.23,12.21,36.61,16,47.93,1.88,5.66,3.33,10.05,4.33,13,.48,1.49.86,2.62,1.11,3.39s.36,1.16.36,1.16h0a6.25,6.25,0,0,0,.51,1.1,7,7,0,0,0,2.42,2.55,7,7,0,0,0,5.54.8c2.18-.7,4.68-1.58,7.51-2.52l41.76-14.08L89.93,273.2l22.28-7.47L152.44,389l-1.76-42.88c-8.1-24.13-16.85-50.22-26-77.45A6.82,6.82,0,0,0,120.79,264.51ZM69.45,327.88l-9.94-31.46,3.37-1.07,9.94,31.46Zm6.9-17.33-5.8-18.34,3.37-1.06,5.8,18.33Zm7.78,23.26-5.79-18.34,3.37-1.06,5.79,18.33Zm2,4.92,3.37-1.07,16,50.78-3.37,1.06Zm21,66.44-3.43-10.85,3.37-1.07,3.43,10.86ZM121,399.41l-3.37,1.06-21.17-67,3.37-1.06ZM98.1,326l-3.37,1.06L82.45,288.23l3.37-1.07Z" style="fill:#007BFF"></path><path d="M120.79,264.51a6.81,6.81,0,0,0-2.86-.47,10.07,10.07,0,0,0-2.86.7l-11.36,3.8L81.51,276l-42,14a7,7,0,0,0-4,3,6.73,6.73,0,0,0-.95,4.81,18.35,18.35,0,0,0,.72,2.43l.81,2.42c.54,1.61,1.07,3.2,1.61,4.79q3.16,9.49,6.16,18.43c4,11.9,7.68,23,11.07,33.09,6.74,20.23,12.21,36.61,16,47.93,1.88,5.66,3.33,10.05,4.33,13,.48,1.49.86,2.62,1.11,3.39s.36,1.16.36,1.16h0a6.25,6.25,0,0,0,.51,1.1,7,7,0,0,0,2.42,2.55,7,7,0,0,0,5.54.8c2.18-.7,4.68-1.58,7.51-2.52l41.76-14.08L89.93,273.2l22.28-7.47L152.44,389l-1.76-42.88c-8.1-24.13-16.85-50.22-26-77.45A6.82,6.82,0,0,0,120.79,264.51ZM69.45,327.88l-9.94-31.46,3.37-1.07,9.94,31.46Zm6.9-17.33-5.8-18.34,3.37-1.06,5.8,18.33Zm7.78,23.26-5.79-18.34,3.37-1.06,5.79,18.33Zm2,4.92,3.37-1.07,16,50.78-3.37,1.06Zm21,66.44-3.43-10.85,3.37-1.07,3.43,10.86ZM121,399.41l-3.37,1.06-21.17-67,3.37-1.06ZM98.1,326l-3.37,1.06L82.45,288.23l3.37-1.07Z" style="isolation:isolate;opacity:0.30000001192092896"></path><path d="M134.5,412.49l-.05-.16L92.69,426.41c-2.83.94-5.33,1.82-7.51,2.52a7,7,0,0,1-5.54-.8,7,7,0,0,1-2.42-2.55c-.39-.7-.48-1.11-.51-1.1h0l.1.29a6.9,6.9,0,0,0,2.78,3.44,7,7,0,0,0,5.62.86c2.2-.69,4.7-1.55,7.54-2.49l47.93-16,11.37-3.8,1.1-.56Z" style="fill:#263238"></path><path d="M76.35,423.31c-.25-.77-.63-1.9-1.11-3.39-1-3-2.45-7.38-4.33-13-3.77-11.32-9.24-27.7-16-47.93-3.39-10.11-7.09-21.19-11.07-33.09q-3-8.92-6.16-18.43c-.54-1.59-1.07-3.18-1.61-4.79l-.81-2.42a18.35,18.35,0,0,1-.72-2.43,6.73,6.73,0,0,1,1-4.81,7,7,0,0,1,4-3l42-14,22.2-7.44,11.36-3.8a10.07,10.07,0,0,1,2.86-.7,6.76,6.76,0,0,1,6.77,4.61c9.13,27.23,17.88,53.32,26,77.45l-.07-1.62c-7.94-23.72-16.52-49.3-25.45-76a7.3,7.3,0,0,0-4.19-4.44,7.14,7.14,0,0,0-3.07-.5,10.69,10.69,0,0,0-3,.72l-11.35,3.81-22.2,7.44-42,14.08a7.4,7.4,0,0,0-4.26,3.13,7.23,7.23,0,0,0-1,5.13,19.27,19.27,0,0,0,.74,2.49c.27.81.55,1.61.82,2.42.53,1.6,1.07,3.2,1.6,4.78q3.2,9.5,6.19,18.43L54.6,359.06l16.13,47.88c1.92,5.64,3.4,10,4.41,13,.51,1.48.9,2.61,1.16,3.38l.41,1.15h0S76.6,424.08,76.35,423.31Z" style="fill:#263238"></path><rect x="106.93" y="331.32" width="3.53" height="70.26" transform="translate(-105.38 49.8) rotate(-17.54)" style="fill:#fafafa"></rect><rect x="88.51" y="286.74" width="3.53" height="40.75" transform="translate(-88.36 41.49) rotate(-17.54)" style="fill:#fafafa"></rect><rect x="73.37" y="291.23" width="3.53" height="19.23" transform="translate(-87.17 36.63) rotate(-17.54)" style="fill:#fafafa"></rect><rect x="63.75" y="294.18" width="3.52" height="32.88" transform="translate(-90.5 34.15) rotate(-17.53)" style="fill:#fafafa"></rect><rect x="105.38" y="393.51" width="3.53" height="11.38" transform="translate(-115.33 50.85) rotate(-17.54)" style="fill:#fafafa"></rect><rect x="81.15" y="314.49" width="3.53" height="19.23" transform="translate(-93.82 40.06) rotate(-17.54)" style="fill:#fafafa"></rect><rect x="94.04" y="336.98" width="3.53" height="53.25" transform="translate(-105.13 45.78) rotate(-17.54)" style="fill:#fafafa"></rect><polygon points="89.93 273.2 134.45 412.33 134.5 412.49 153.15 406.24 153.15 406.24 152.44 388.98 112.21 265.73 89.93 273.2" style="fill:#fafafa"></polygon><polygon points="134.25 420.8 152.33 414.44 151.94 406.51 134.5 412.49 134.25 420.8" style="fill:#263238"></polygon></g><g id="freepik--Icon--inject-2"><path d="M362.21,190.61c0,.14-.56.23-1.26.2s-1.24-.17-1.23-.32.57-.23,1.26-.2S362.22,190.46,362.21,190.61Z" style="fill:#263238"></path><path d="M372,190.19a5.8,5.8,0,0,1-2.43.45,5.88,5.88,0,0,1-2.47-.07,11.77,11.77,0,0,1,4.9-.38Z" style="fill:#263238"></path><path d="M381.7,188.46a5.93,5.93,0,0,1-2.35.77,6.2,6.2,0,0,1-2.46.26,11.69,11.69,0,0,1,4.81-1Z" style="fill:#263238"></path><path d="M391.05,185.47a5.94,5.94,0,0,1-2.22,1.07,5.88,5.88,0,0,1-2.4.58,5.79,5.79,0,0,1,2.22-1.07A6.22,6.22,0,0,1,391.05,185.47Z" style="fill:#263238"></path><path d="M399.92,181.24a12,12,0,0,1-4.36,2.27,6.19,6.19,0,0,1,2.06-1.37A6,6,0,0,1,399.92,181.24Z" style="fill:#263238"></path><path d="M408.09,175.79c.09.11-.73.85-1.84,1.65a6,6,0,0,1-2.14,1.23c-.08-.12.74-.86,1.84-1.66S408,175.67,408.09,175.79Z" style="fill:#263238"></path><path d="M415.31,169.13c.11.1-.59,1-1.55,1.92s-1.83,1.66-1.92,1.55.59-1,1.55-1.92S415.2,169,415.31,169.13Z" style="fill:#263238"></path><path d="M421.28,161.34c.13.07-.41,1-1.19,2.16s-1.51,2-1.62,1.87a6.23,6.23,0,0,1,1.19-2.17C420.44,162.1,421.16,161.26,421.28,161.34Z" style="fill:#263238"></path><path d="M425.68,152.56a11.7,11.7,0,0,1-2,4.5,11,11,0,0,1,2-4.5Z" style="fill:#263238"></path><path d="M428.28,143.1a6,6,0,0,1-.29,2.45,5.87,5.87,0,0,1-.8,2.34A11.65,11.65,0,0,1,428.28,143.1Z" style="fill:#263238"></path><path d="M429.28,133.33a11.42,11.42,0,0,1-.31,4.9,6,6,0,0,1-.1-2.46A6.18,6.18,0,0,1,429.28,133.33Z" style="fill:#263238"></path><path d="M428.79,123.53a11.41,11.41,0,0,1,.43,4.89,6.1,6.1,0,0,1-.47-2.42A6.22,6.22,0,0,1,428.79,123.53Z" style="fill:#263238"></path><path d="M426.8,113.91a6.08,6.08,0,0,1,.85,2.32,6,6,0,0,1,.34,2.45,6.08,6.08,0,0,1-.85-2.32A6.2,6.2,0,0,1,426.8,113.91Z" style="fill:#263238"></path><path d="M423.24,104.76a6,6,0,0,1,1.23,2.14,5.79,5.79,0,0,1,.75,2.36,6.24,6.24,0,0,1-1.23-2.15A6.06,6.06,0,0,1,423.24,104.76Z" style="fill:#263238"></path><path d="M418,96.45c.11-.09.83.74,1.62,1.86a6,6,0,0,1,1.19,2.16c-.12.08-.85-.76-1.62-1.86A6,6,0,0,1,418,96.45Z" style="fill:#263238"></path><path d="M411.19,89.41c.09-.11,1,.49,2,1.42s1.68,1.81,1.58,1.91-.94-.61-1.93-1.53S411.1,89.52,411.19,89.41Z" style="fill:#263238"></path><path d="M405.08,85.19c.07-.12.61.07,1.2.43s1,.75.93.87-.62-.07-1.2-.42S405,85.32,405.08,85.19Z" style="fill:#263238"></path><circle cx="377.96" cy="75.25" r="34.64" style="fill:#007BFF"></circle><polygon points="357.47 77.78 362.83 72.42 373.17 81.61 393.47 62.08 398.45 67.44 372.41 91.95 357.47 77.78" style="fill:#fafafa"></polygon></g></svg>